# xmcd CD database file
#
# Track frame offsets:
#	150
#	9264
#	36711
#	57339
#	86388
#	101064
#	122064
#	181420
#	198363
#
# Disc length: 3129 seconds
#
# Revision: 0
# Processed by: cddbd v1.5.2PL0 Copyright (c) Steve Scherf et al.
# Submitted via: CDex 1.70beta2
#
DISCID=740c3709
DTITLE=Das Rote Gras - DRG
DYEAR=2005
DGENRE=Jazz
TTITLE0=Am Ärgsten ists am Schönsten
TTITLE1=Pinguin suspekt
TTITLE2=Senfblau
TTITLE3=American Unicorn
TTITLE4=Fressen
TTITLE5=Aida
TTITLE6=Variation On My Telephonenumber
TTITLE7=Polizeihundkalender
TTITLE8=Happy Fisch
EXTD=YEAR: 2005
EXTT0=
EXTT1=
EXTT2=
EXTT3=
EXTT4=
EXTT5=
EXTT6=
EXTT7=
EXTT8=
PLAYORDER=
